<?xml version="1.0" encoding="UTF-8"?>
<svg xmlns="http://www.w3.org/2000/svg" xmlns:xlink="http://www.w3.org/1999/xlink" width="257pt" height="27pt" viewBox="0 0 257 27" version="1.1">
<g id="surface1">
<path style=" stroke:none;fill-rule:nonzero;fill:rgb(0%,0%,0%);fill-opacity:1;" d="M 84.539062 26.820312 C 80.0625 17.453125 76.535156 10.15625 71.816406 0.261719 C 73.632812 0.21875 74.707031 0.199219 77.015625 0.28125 C 79.757812 5.921875 81.8125 10.375 84.734375 16.355469 C 87.488281 10.707031 89.550781 6.382812 92.476562 0.273438 C 94.203125 0.300781 96.035156 0.207031 97.707031 0.300781 C 97.671875 0.398438 84.78125 27.179688 84.757812 27.203125 C 84.746094 27.21875 84.644531 27.046875 84.539062 26.820312 Z M 111.816406 0.167969 L 116.5625 0.167969 L 116.5625 24.089844 L 111.816406 24.089844 Z M 39.539062 24.015625 C 39.507812 14.691406 39.539062 9.429688 39.558594 0 L 58.371094 0 L 58.371094 4.597656 L 44.324219 4.554688 L 44.324219 9.753906 L 57.363281 9.753906 L 57.363281 14.308594 L 44.300781 14.308594 C 44.300781 16.03125 44.308594 17.742188 44.3125 19.460938 L 58.882812 19.476562 L 58.882812 24.035156 C 52.433594 23.984375 45.988281 24.109375 39.542969 24.015625 Z M 128.6875 23.992188 L 134.492188 12 L 140.316406 0 L 143.859375 0.015625 L 149.714844 12.003906 C 152.9375 18.597656 155.574219 24.003906 155.574219 24.011719 C 153.765625 24.046875 152.390625 24.035156 150.445312 24.035156 L 147.46875 18.097656 L 136.714844 18.097656 L 133.847656 24.023438 C 132.039062 24.023438 130.503906 24.007812 128.699219 23.992188 Z M 142.070312 7.085938 C 141.011719 9.222656 139.964844 11.363281 138.925781 13.507812 L 145.265625 13.507812 C 144.199219 11.375 143.164062 9.214844 142.070312 7.085938 Z M 169.464844 24.003906 C 169.460938 15.957031 169.480469 7.246094 169.507812 0.285156 L 174.183594 0.285156 L 174.183594 19.503906 L 188.296875 19.519531 L 188.296875 24.023438 C 181.664062 24.023438 176.132812 24.011719 169.464844 24.007812 Z M 202.621094 0.304688 C 209.132812 0.304688 214.101562 0.316406 221.117188 0.328125 L 221.117188 4.820312 L 207.304688 4.820312 L 207.304688 9.925781 L 220.144531 9.925781 L 220.144531 14.429688 L 207.304688 14.429688 L 207.304688 19.53125 L 221.628906 19.53125 L 221.628906 24.039062 L 202.574219 24.039062 C 202.613281 16.125 202.566406 8.210938 202.617188 0.300781 Z M 244.109375 4.820312 L 235.730469 4.820312 L 235.730469 0.316406 L 257.152344 0.316406 L 257.152344 4.835938 L 248.796875 4.8125 L 248.796875 24.039062 L 244.109375 24.039062 L 244.109375 4.816406 Z M 0 21.714844 L 2.144531 21.714844 L 2.144531 2.4375 L 0 2.4375 L 0.015625 0.214844 L 6.589844 0.222656 C 10.632812 0.226562 13.332031 0.242188 13.585938 0.261719 C 16.3125 0.453125 18.722656 1.355469 20.660156 2.910156 C 21.019531 3.199219 21.6875 3.851562 22.019531 4.230469 C 23.542969 6 24.441406 8.167969 24.726562 10.757812 C 24.800781 11.382812 24.796875 12.941406 24.726562 13.566406 C 24.589844 15.050781 24.175781 16.496094 23.515625 17.832031 C 21.929688 20.988281 18.957031 23.085938 15.171875 23.722656 C 13.808594 23.949219 13.820312 23.949219 6.484375 23.949219 L 0 23.949219 Z M 13.839844 19.351562 C 14.882812 19.230469 15.890625 18.90625 16.808594 18.394531 C 18.472656 17.433594 19.542969 15.8125 19.886719 13.710938 C 20.082031 12.550781 20.054688 11.253906 19.816406 10.167969 C 19.472656 8.445312 18.460938 6.929688 17 5.957031 C 16.011719 5.328125 14.894531 4.933594 13.730469 4.800781 C 13.4375 4.757812 12.980469 4.75 10.132812 4.742188 L 6.863281 4.730469 C 6.828125 9.867188 6.894531 15 6.835938 19.421875 L 10.175781 19.410156 C 13.132812 19.402344 13.550781 19.394531 13.84375 19.351562 Z M 13.839844 19.351562 "/>
</g>
</svg>
